<svg xmlns="http://www.w3.org/2000/svg" width="24" height="24" viewBox="0 0 24 24" fill="none" stroke="black" stroke-width="1" stroke-linecap="round" stroke-linejoin="round"><path d="M1.0001 5.0007C1.4197 4.234 2.6343 2.5796 4.1435 2.0147M16.713 2.0147C18.2383 2.3778 21.6278 3.548 22.9997 5.0007" stroke-opacity="0.3"/><path d="M6.6372 13.5552L6.2417 13.8377C6.3628 13.9991 6.5767 14.0798 6.7744 13.9991C6.9721 13.9587 7.1133 13.7973 7.1375 13.5956L6.6372 13.5552ZM7.7549 2.9024L8.2553 2.9428C8.2553 2.9428 8.2553 2.9024 8.2553 2.9024L7.7549 2.9024ZM10.5513 1.1269L10.7167 0.6427V0.6427L10.5513 1.1269ZM11.665 5.8481L11.1727 5.7674C11.1727 5.8077 11.1687 5.8077 11.1687 5.8077L11.665 5.8481ZM11.1081 11.1745L10.6118 11.1341C10.5957 11.2552 10.6401 11.4166 10.7369 11.4973C10.8297 11.6183 10.9669 11.6587 11.1081 11.6587V11.1745ZM21.7246 18.2763L21.2404 18.1553V18.1553L21.7246 18.2763ZM1.0525 11.7797L1.5367 11.6587V11.6587L1.0525 11.7797ZM7.1375 13.5956L8.2553 2.9428L7.2586 2.8621L6.1409 13.4745L7.1375 13.5956ZM8.2553 2.9024C8.2553 2.8621 8.2835 2.741 8.3925 2.4989C8.4934 2.2971 8.6427 2.0954 8.8363 1.934C9.2156 1.5708 9.7241 1.369 10.3818 1.6112L10.7167 0.6427C9.6272 0.2796 8.7395 0.6427 8.1584 1.2076C7.8719 1.4498 7.65 1.7726 7.5047 2.055C7.3595 2.3375 7.2546 2.6199 7.2546 2.9024L8.2553 2.9024ZM10.3818 1.6112C10.9306 1.7726 11.2211 2.3375 11.3099 3.2252C11.3946 4.113 11.2655 5.0814 11.1727 5.7674L12.1613 5.9288C12.2541 5.2428 12.4034 4.1533 12.3025 3.1445C12.2057 2.1761 11.8425 1.0462 10.7167 0.6427L10.3818 1.6112ZM11.1687 5.8077L10.6118 11.1341L11.6045 11.2148L12.1653 5.8884L11.1687 5.8077ZM11.1081 11.6587H17.2537V10.6903H11.1081V11.6587ZM17.2537 11.6587C19.6707 11.6587 22.2129 14.5237 21.2404 18.1553L22.2048 18.3974C23.3225 14.2815 20.4253 10.6903 17.2537 10.6903V11.6587ZM21.2404 18.1553C20.8692 19.5272 20.0904 20.6167 19.2148 21.3431C18.323 22.1097 17.3747 22.5133 16.6968 22.5133V23.4817C17.6895 23.4817 18.8597 22.9975 19.8644 22.1097C20.8813 21.2624 21.7771 19.9711 22.2048 18.3974L21.2404 18.1553ZM16.6968 22.5133H8.8727V23.4817H16.6968V22.5133ZM8.8727 22.5133C7.5572 22.5133 3.7561 21.0202 1.5367 11.6587L0.5643 11.8604C2.8159 21.4238 6.8389 23.4817 8.8727 23.4817V22.5133ZM1.5367 11.6587C1.452 11.2955 1.5206 11.0131 1.6296 10.892C1.7304 10.7306 1.9241 10.6096 2.2913 10.6499C3.0782 10.7306 4.4703 11.4973 6.2417 13.8377L7.0367 13.2324C5.2289 10.8517 3.6068 9.7622 2.3801 9.6815C1.7425 9.6008 1.1817 9.8025 0.8346 10.2867C0.4957 10.7306 0.4271 11.2955 0.5643 11.8604L1.5367 11.6587Z" fill="black" stroke="none"/></svg>
