<svg xmlns="http://www.w3.org/2000/svg" width="24" height="24" viewBox="0 0 24 24" fill="none" stroke="black" stroke-width="1" stroke-linecap="round" stroke-linejoin="round"><path d="M11.4984 2.0057H18.9998C21.207 2.0057 22.9986 3.7004 22.9986 5.7584V14.2725C22.9986 16.3305 21.207 18.0252 18.9998 18.0252H12.7816C11.6477 18.0252 10.5663 18.5094 9.8077 19.2761L7.3705 21.8586C7.0638 22.1814 6.4989 21.9393 6.4989 21.5358V18.9937C6.4989 18.4691 6.051 18.0252 5.4981 18.0252H4.9978C2.7906 18.0252 0.9989 16.3305 0.9989 14.2725V5.7584C0.9989 3.7004 2.7906 2.0057 4.9978 2.0057H5.9985M7.9999 2.0057H9.501M9.0007 12.9813L11.9988 9.9953M11.9988 9.9953L15.0009 7.0093M11.9988 9.9953L15.0009 12.9813M11.9988 9.9953L9.0007 7.0093"/></svg>
